<?xml version="1.0" standalone="no"?>
<!DOCTYPE svg PUBLIC "-//W3C//DTD SVG 20010904//EN"
 "http://www.w3.org/TR/2001/REC-SVG-20010904/DTD/svg10.dtd">
<svg version="1.0" xmlns="http://www.w3.org/2000/svg"
 width="736.000000pt" height="736.000000pt" viewBox="0 0 736.000000 736.000000"
 preserveAspectRatio="xMidYMid meet">
<metadata>
Created by potrace 1.14, written by Peter Selinger 2001-2017
</metadata>
<g transform="translate(0.000000,736.000000) scale(0.100000,-0.100000)"
fill="#000000" stroke="none">
<path d="M2588 7215 c-2 -1 -32 -5 -68 -8 -36 -3 -85 -10 -110 -16 -25 -5 -59
-12 -77 -15 -54 -10 -204 -66 -298 -112 -402 -197 -693 -582 -781 -1034 -24
-126 -26 -361 -3 -485 23 -127 29 -157 35 -167 3 -4 7 -16 9 -25 19 -98 140
-343 212 -433 7 -8 26 -33 43 -55 40 -50 104 -119 159 -168 l43 -38 -79 -77
c-131 -129 -215 -244 -293 -400 -40 -82 -103 -257 -113 -317 -3 -17 -8 -41
-11 -55 -14 -64 -18 -105 -21 -241 -1 -81 1 -167 6 -192 4 -24 10 -62 13 -84
18 -149 117 -398 218 -548 63 -93 144 -189 213 -253 l63 -58 -101 -105 c-227
-233 -364 -516 -404 -834 -10 -79 -10 -295 0 -365 13 -89 18 -113 22 -120 2
-4 7 -22 10 -41 12 -70 69 -217 123 -322 139 -265 360 -485 622 -617 l59 -30
598 0 598 0 60 30 c146 73 239 142 378 282 64 65 117 122 117 127 0 5 6 16 13
23 40 40 143 227 187 339 32 80 77 264 86 349 4 41 8 320 8 620 1 357 5 544
11 541 6 -2 64 -30 130 -62 163 -79 296 -119 479 -144 52 -7 277 -8 311 -2 11
3 42 8 68 11 94 14 189 38 282 73 70 26 80 30 165 73 273 137 516 391 645 675
l35 76 0 536 0 537 -41 84 c-76 157 -164 279 -294 409 l-82 82 71 68 c128 123
213 238 297 403 l44 85 3 548 2 547 -45 91 c-100 200 -226 360 -380 484 -28
22 -52 43 -55 46 -34 40 -290 174 -390 204 -30 9 -64 21 -75 26 -19 8 -120 30
-210 45 -36 6 -2500 15 -2507 9z m868 -1442 l-1 -778 -435 0 c-239 0 -453 3
-475 7 -238 42 -449 198 -558 413 -64 127 -81 202 -82 355 0 101 5 150 18 195
87 292 286 488 570 560 89 23 106 23 528 24 l436 2 -1 -778z m1639 754 c68
-19 73 -22 169 -68 167 -82 321 -261 380 -445 150 -462 -151 -946 -630 -1014
-51 -7 -222 -10 -484 -8 l-405 3 -1 770 c0 424 2 774 4 778 2 5 207 7 456 5
387 -4 460 -7 511 -21z m-1644 -2206 c3 -1 6 -351 5 -778 l-1 -778 -419 0
c-456 0 -515 5 -640 53 -244 95 -421 305 -482 573 -3 13 -8 67 -11 120 -20
349 208 672 549 777 36 12 93 24 125 28 32 3 59 7 60 8 1 1 803 -2 814 -3z
m1559 -6 c214 -27 432 -166 551 -350 73 -114 123 -286 123 -420 0 -367 -266
-691 -628 -765 -78 -16 -226 -16 -301 0 -154 32 -293 107 -400 214 -177 180
-252 401 -221 660 39 335 342 631 678 662 40 3 74 7 75 8 4 3 60 -1 123 -9z
m-1555 -2665 c-1 -390 -3 -453 -18 -509 -42 -154 -100 -260 -197 -359 -97 -99
-158 -140 -270 -184 -119 -47 -132 -50 -276 -54 -96 -2 -137 1 -199 17 -78 20
-227 84 -233 100 -2 5 -8 9 -13 9 -10 0 -40 24 -111 89 -100 91 -175 221 -213
368 -22 82 -24 112 -21 212 2 64 11 143 20 176 63 229 226 419 438 513 143 64
185 68 673 68 l420 -1 0 -445z"/>
</g>
</svg>
